<?xml version="1.0" standalone="no"?>
<!DOCTYPE svg PUBLIC "-//W3C//DTD SVG 20010904//EN"
 "http://www.w3.org/TR/2001/REC-SVG-20010904/DTD/svg10.dtd">
<svg version="1.0" xmlns="http://www.w3.org/2000/svg"
 width="148.000000pt" height="148.000000pt" viewBox="0 0 148.000000 148.000000"
 preserveAspectRatio="xMidYMid meet">

<g transform="translate(0.000000,148.000000) scale(0.100000,-0.100000)"
fill="#000000" stroke="none">
<path d="M671 1279 c-327 -109 -602 -205 -610 -214 -13 -13 -13 -21 3 -71 17
-53 17 -57 0 -75 -40 -45 -24 -162 26 -189 19 -10 20 -22 20 -360 0 -335 1
-350 19 -360 27 -14 1265 -14 1292 0 18 10 19 26 19 425 l0 415 -562 2 -561 3
-10 29 c-6 19 -6 30 1 35 6 3 246 84 534 180 287 96 525 176 527 178 3 2 -8
43 -23 91 -26 82 -46 113 -70 111 -6 0 -279 -90 -605 -200z m475 79 c-4 -13
-11 -44 -17 -69 -10 -45 -10 -45 -78 -67 -37 -12 -70 -22 -73 -22 -7 0 22 122
32 133 10 11 101 45 124 46 14 1 17 -4 12 -21z m-364 -163 l-18 -68 -69 -24
c-38 -12 -70 -21 -72 -19 -4 3 26 128 31 134 4 4 141 51 143 48 1 -1 -6 -33
-15 -71z m-347 -81 c-3 -20 -12 -53 -18 -72 -12 -36 -19 -39 -133 -76 l-22 -7
15 63 c9 35 20 68 25 73 8 9 112 52 132 54 4 1 5 -15 1 -35z m-208 -226 c38
-35 29 -89 -18 -113 -34 -18 -69 -8 -93 27 -22 32 -20 55 9 83 30 31 71 32
102 3z m283 -78 c0 -5 -16 -34 -35 -65 l-36 -55 -75 0 c-42 0 -74 3 -72 8 2 4
19 33 38 65 l35 57 72 0 c41 0 73 -4 73 -10z m369 -12 c-7 -13 -25 -42 -41
-65 l-29 -43 -69 0 c-42 0 -70 4 -70 10 0 6 16 35 35 65 l35 55 75 0 c75 0 76
0 64 -22z m381 15 c0 -3 -17 -33 -37 -65 l-38 -58 -72 0 c-40 0 -73 3 -73 6 0
4 16 33 36 65 l35 59 75 0 c41 0 74 -3 74 -7z m-412 -353 c56 -35 102 -66 102
-70 0 -5 -172 -116 -237 -154 -10 -6 -13 28 -13 155 l0 161 23 -14 c12 -8 68
-43 125 -78z"/>
</g>
</svg>
